<?xml version="1.0" encoding="UTF-8"?>
<svg version="1.1" xmlns="http://www.w3.org/2000/svg" width="202" height="70">
<path d="M0 0 C66.66 0 133.32 0 202 0 C202 23.1 202 46.2 202 70 C135.34 70 68.68 70 0 70 C0 46.9 0 23.8 0 0 Z " fill="#FDFEFE" transform="translate(0,0)"/>
<path d="M0 0 C3.39488422 2.05107588 4.80323081 3.70484621 7 7 C7.66100598 11.04257341 7.91928345 15.20172043 6.01953125 18.91796875 C2.98537271 22.69899709 0.05139127 24.74137187 -4.7265625 25.34375 C-6.66404743 25.44819663 -8.60154755 25.5523618 -10.5390625 25.65625 C-13.17403194 25.77237389 -13.17403194 25.77237389 -15 28 C-15.05231879 31.68473771 -14.94604446 35.31821251 -14.74609375 38.99609375 C-14.5800771 44.88480201 -15.65449408 49.10204184 -19 54 C-21.03515625 56.05859375 -21.03515625 56.05859375 -23.0625 57.4375 C-23.73410156 57.91058594 -24.40570313 58.38367187 -25.09765625 58.87109375 C-29.52449264 61.49810754 -34.00422248 61.68935242 -39 61 C-44.76644344 58.85847662 -48.77163484 54.79120181 -51.921875 49.58984375 C-54.30621521 43.8622439 -54.27619175 38.10724948 -51.921875 32.375 C-48.75435747 27.08420148 -45.00941997 23.6259491 -39 22 C-34.43254989 21.45606549 -30.14060483 21.95971021 -25.625 22.6875 C-22.08893187 23.40277787 -22.08893187 23.40277787 -20.125 21.5625 C-19.75375 21.046875 -19.3825 20.53125 -19 20 C-18.34 20 -17.68 20 -17 20 C-17.04640625 19.11957031 -17.0928125 18.23914063 -17.140625 17.33203125 C-17.19476563 15.58986328 -17.19476563 15.58986328 -17.25 13.8125 C-17.29640625 12.66394531 -17.3428125 11.51539063 -17.390625 10.33203125 C-16.92190538 6.33385287 -15.79690508 4.83211792 -13 2 C-8.7609119 -0.82605874 -4.97875497 -0.66012246 0 0 Z " fill="#3FC0BD" transform="translate(188,2)"/>
<path d="M0 0 C4.58702411 2.66013294 6.42204557 5.16231154 8.5390625 10.09375 C8.87963867 13.25341797 8.87963867 13.25341797 8.83203125 16.5859375 C8.8175293 18.38417969 8.8175293 18.38417969 8.80273438 20.21875 C8.77759766 21.45625 8.75246094 22.69375 8.7265625 23.96875 C8.70625977 25.85980469 8.70625977 25.85980469 8.68554688 27.7890625 C8.65029685 30.89106454 8.60101754 33.99218534 8.5390625 37.09375 C5.5690625 37.09375 2.5990625 37.09375 -0.4609375 37.09375 C-0.47552002 36.35213623 -0.49010254 35.61052246 -0.50512695 34.84643555 C-0.57953207 31.49084369 -0.67621756 28.13625506 -0.7734375 24.78125 C-0.79599609 23.61400391 -0.81855469 22.44675781 -0.84179688 21.24414062 C-0.87724609 20.12587891 -0.91269531 19.00761719 -0.94921875 17.85546875 C-0.97540283 16.82381592 -1.00158691 15.79216309 -1.02856445 14.72924805 C-1.51388065 11.77103893 -2.06115878 10.83207465 -4.4609375 9.09375 C-6.67216069 8.65789738 -6.67216069 8.65789738 -9.0234375 8.78125 C-9.80847656 8.78511719 -10.59351562 8.78898437 -11.40234375 8.79296875 C-13.68220584 8.91671977 -13.68220584 8.91671977 -15.4609375 11.09375 C-15.83332977 13.90777683 -15.83332977 13.90777683 -15.875 17.1953125 C-15.93300781 19.01289062 -15.93300781 19.01289062 -15.9921875 20.8671875 C-16.023125 22.13820313 -16.0540625 23.40921875 -16.0859375 24.71875 C-16.14394531 26.636875 -16.14394531 26.636875 -16.203125 28.59375 C-16.29764799 31.76027017 -16.38320107 34.9267804 -16.4609375 38.09375 C-19.7609375 38.09375 -23.0609375 38.09375 -26.4609375 38.09375 C-26.57740791 33.55230006 -26.64828252 29.01123606 -26.7109375 24.46875 C-26.74445313 23.18355469 -26.77796875 21.89835937 -26.8125 20.57421875 C-26.93472598 8.77941188 -26.93472598 8.77941188 -22.4609375 4.09375 C-16.20994514 -1.54738945 -8.03792005 -2.95999595 0 0 Z " fill="#5BCDC8" transform="translate(118.4609375,24.90625)"/>
<path d="M0 0 C3.3 0 6.6 0 10 0 C10.11647041 4.54144994 10.18734502 9.08251394 10.25 13.625 C10.28351563 14.91019531 10.31703125 16.19539063 10.3515625 17.51953125 C10.47378848 29.31433812 10.47378848 29.31433812 6 34 C0.74928681 38.73844849 -3.31844111 39.35924244 -10.20703125 39.27734375 C-14.51971013 38.84909172 -16.56369156 37.66489226 -20 35 C-24.16393306 29.74029508 -25.13261739 25.93206943 -25.09765625 19.359375 C-25.09443359 18.28945313 -25.09121094 17.21953125 -25.08789062 16.1171875 C-25.07951172 15.00601563 -25.07113281 13.89484375 -25.0625 12.75 C-25.05798828 11.62335937 -25.05347656 10.49671875 -25.04882812 9.3359375 C-25.03705397 6.55723783 -25.0206084 3.77864591 -25 1 C-22.03 1 -19.06 1 -16 1 C-15.98018066 1.67579102 -15.96036133 2.35158203 -15.93994141 3.04785156 C-15.84456762 6.11562044 -15.73493835 9.18271998 -15.625 12.25 C-15.5940625 13.31347656 -15.563125 14.37695312 -15.53125 15.47265625 C-15.49257813 16.49746094 -15.45390625 17.52226563 -15.4140625 18.578125 C-15.3826416 19.52075195 -15.3512207 20.46337891 -15.31884766 21.43457031 C-14.98983384 24.08179632 -14.4436128 25.76698635 -13 28 C-10.92683959 28.81162671 -10.92683959 28.81162671 -8.5625 28.9375 C-7.78003906 29.02902344 -6.99757813 29.12054688 -6.19140625 29.21484375 C-3.97271565 29.18045923 -3.97271565 29.18045923 -2.39501953 27.86035156 C-0.42950775 25.23921055 -0.56763631 23.27308867 -0.48828125 20.01953125 C-0.45283203 18.85615234 -0.41738281 17.69277344 -0.38085938 16.49414062 C-0.35830078 15.27919922 -0.33574219 14.06425781 -0.3125 12.8125 C-0.27833984 11.58595703 -0.24417969 10.35941406 -0.20898438 9.09570312 C-0.1264059 6.06389322 -0.05728631 3.03237621 0 0 Z " fill="#6CD5CE" transform="translate(73,24)"/>
<path d="M0 0 C3.54138618 -0.11681812 7.0822724 -0.187455 10.625 -0.25 C11.62402344 -0.28351562 12.62304688 -0.31703125 13.65234375 -0.3515625 C19.7832342 -0.43276635 23.37324029 -0.16258641 28 4 C30 7 30 7 30.125 10.25 C27.679913 18.40029001 19.15762505 22.35091864 12.22265625 26.51953125 C9.88888248 27.80849243 9.88888248 27.80849243 9 30 C15.93 30 22.86 30 30 30 C30 32.64 30 35.28 30 38 C25.77119589 38.14541967 21.54303587 38.23411527 17.3125 38.3125 C16.11431641 38.35439453 14.91613281 38.39628906 13.68164062 38.43945312 C4.81117943 38.56299715 4.81117943 38.56299715 0.71875 35.72265625 C-1.1276283 32.79782518 -1.91322139 30.53775006 -1.6640625 27.04296875 C0.5982603 20.08299919 9.92595209 15.99774269 15.77734375 12.48046875 C18.11111752 11.19150757 18.11111752 11.19150757 19 9 C12.73 9 6.46 9 0 9 C0 6.03 0 3.06 0 0 Z " fill="#7CDDD5" transform="translate(10,24)"/>
<path d="M0 0 C2.87029869 1.79393668 4.49131638 2.98263276 6 6 C6.4973766 10.973766 6.54511419 13.06308498 4 17.4375 C0.75984521 20.20513221 -0.92324712 20.94886635 -5.0703125 21.17578125 C-8.00568196 20.90838929 -9.75032456 19.85267389 -12 18 C-14.83678809 13.74481787 -14.74724488 9.99223174 -14 5 C-10.54419072 -0.57388593 -6.10736255 -1.22811095 0 0 Z " fill="#F8FCFC" transform="translate(158,33)"/>
<path d="M0 0 C2.625 0.5625 2.625 0.5625 5 2 C6 4.4375 6 4.4375 6 7 C4.875 8.875 4.875 8.875 3 10 C-0.34192692 9.75546876 -1.60543557 9.39456443 -4 7 C-3.8125 4.5 -3.8125 4.5 -3 2 C-2.01 1.34 -1.02 0.68 0 0 Z " fill="#EEF9F9" transform="translate(182,9)"/>
</svg>
